<svg viewBox="0 0 152 19" xmlns="http://www.w3.org/2000/svg">
  <g fill="#FFF" fill-rule="nonzero">
    <path d="M2.778 3.108.214 4.593A.429.429 0 0 0 0 4.964v9.07c0 .154.082.296.214.372l4.63 2.682a.214.214 0 0 0 .32-.187v-4.289a.214.214 0 0 0-.107-.184l-1.852-1.073a.214.214 0 0 1-.107-.185V3.293a.213.213 0 0 0-.32-.185M8.047.057 6.711.83v17.339l1.336.773a.422.422 0 0 0 .428 0l1.334-.773V4.788c0-.165.178-.267.32-.185l3.188 1.844c.066.04.107.11.107.187v4.536a.214.214 0 0 1-.107.185l-1.852 1.073a.214.214 0 0 0-.107.184v4.29c0 .164.179.268.32.186l4.63-2.682a.429.429 0 0 0 .214-.371V4.964a.429.429 0 0 0-.214-.37L8.475.056a.43.43 0 0 0-.428 0M149.934 11.432a2.055 2.055 0 0 0 2.066-2.1l-.01-2.59c-.043-1.227-.944-2.155-2.094-2.155h-9.09a.118.118 0 0 0-.116.119v1.633c0 .064.053.117.117.117h9.045c.138 0 .256.099.284.26v2.56a.275.275 0 0 1-.278.287h-9.066a.102.102 0 0 0-.102.1v4.67c0 .065.053.117.117.117h1.64a.117.117 0 0 0 .117-.117v-2.9h4.747l2.026 2.874a.336.336 0 0 0 .275.143h2.209a.119.119 0 0 0 .098-.186l-1.985-2.832Z"></path>
  </g>
</svg>
